<svg xmlns="http://www.w3.org/2000/svg" viewBox="0 0 184 147"><defs><style>.cls-1{fill:#2965f1;}.cls-2{opacity:0.08;}.cls-3{fill:#fff;}</style></defs><title>piece-blue</title><g id="Capa_2" data-name="Capa 2"><g id="piece-blue"><path class="cls-1" d="M0,74C0,89,13,98,21,90s19,0,19,0v52a5,5,0,0,0,5,5H179a5,5,0,0,0,5-5V5a5,5,0,0,0-5-5H126s11,26-15,26S95,0,95,0H45a5,5,0,0,0-5,5V58s-11,8-19,0S0,59,0,74"/><path class="cls-2" d="M183.5,64.5v77a5,5,0,0,1-5,5H66.5C132.71,146.25,176.94,124.12,183.5,64.5Z"/><path class="cls-3" d="M76.53,77.33c0-9.52,6.29-15,13.54-15A12.11,12.11,0,0,1,98.69,66l-3.41,4.16a7.22,7.22,0,0,0-5.07-2.28c-3.93,0-7,3.47-7,9.22s2.75,9.32,6.94,9.32a7.55,7.55,0,0,0,5.61-2.68l3.42,4.07A11.8,11.8,0,0,1,89.88,92C82.6,92,76.53,87,76.53,77.33Z"/><path class="cls-3" d="M100.4,87.88l3.72-4.45a11.41,11.41,0,0,0,7,3c2.7,0,4-1.07,4-2.77s-1.63-2.38-4.14-3.41l-3.72-1.59c-3-1.21-5.79-3.65-5.79-7.82,0-4.75,4.24-8.55,10.21-8.55A13.24,13.24,0,0,1,121,66.05l-3.27,4.09a9.35,9.35,0,0,0-6-2.25c-2.23,0-3.66.93-3.66,2.57s1.88,2.4,4.38,3.4l3.66,1.48c3.5,1.41,5.69,3.74,5.69,7.8,0,4.76-4,8.89-10.81,8.89A15.8,15.8,0,0,1,100.4,87.88Z"/><path class="cls-3" d="M124.05,87.88l3.72-4.45a11.41,11.41,0,0,0,7,3c2.71,0,4-1.07,4-2.77s-1.63-2.38-4.14-3.41L131,78.66c-3-1.21-5.79-3.65-5.79-7.82,0-4.75,4.25-8.55,10.22-8.55a13.24,13.24,0,0,1,9.22,3.76l-3.27,4.09a9.35,9.35,0,0,0-6-2.25c-2.24,0-3.66.93-3.66,2.57s1.87,2.4,4.38,3.4l3.65,1.48c3.5,1.41,5.69,3.74,5.69,7.8,0,4.76-4,8.89-10.81,8.89A15.82,15.82,0,0,1,124.05,87.88Z"/></g></g></svg>