<svg xmlns="http://www.w3.org/2000/svg" viewBox="0 0 147.5 184"><defs><style>.cls-1{fill:#f0db4f;}.cls-2{opacity:0.05;}.cls-3{fill:#323330;}</style></defs><title>piece-yellow</title><g id="Capa_2" data-name="Capa 2"><g id="piece-yellow"><path class="cls-1" d="M73.49,184c-15,0-24-13-16-21s0-19,0-19H5.5a5,5,0,0,1-5-5V5a5,5,0,0,1,5-5h137a5,5,0,0,1,5,5V58s-26-11-26,15,26,16,26,16v50a5,5,0,0,1-5,5h-53s-8,11,0,19-1,21-16,21"/><path class="cls-2" d="M73,183.5h0a21.37,21.37,0,0,0,15-5.59,106.84,106.84,0,0,1-31.68-14.62C49.57,171.32,58.47,183.5,73,183.5Z"/><path class="cls-2" d="M0,138.5a5,5,0,0,0,5,5H34.48C9.9,114.35,2.31,76.51,0,57.89Z"/><path class="cls-3" d="M47.77,85.54,52.58,82c1.15,2.15,2.76,3.13,4.35,3.13,2.53,0,3.9-1.3,3.9-5.47V59.34H67.9V80.22c0,6-3.12,11-10,11C53.08,91.2,49.94,89.33,47.77,85.54Z"/><path class="cls-3" d="M73.09,86.68l4.06-4.85a12.51,12.51,0,0,0,7.69,3.27c3,0,4.4-1.17,4.4-3s-1.78-2.6-4.52-3.73l-4.06-1.73c-3.24-1.32-6.32-4-6.32-8.53,0-5.19,4.64-9.33,11.15-9.33a14.5,14.5,0,0,1,10.06,4.1L92,67.32a10.18,10.18,0,0,0-6.49-2.45c-2.44,0-4,1-4,2.81s2,2.61,4.77,3.7l4,1.62c3.82,1.54,6.21,4.08,6.21,8.51,0,5.19-4.33,9.69-11.79,9.69A17.24,17.24,0,0,1,73.09,86.68Z"/></g></g></svg>