<svg xmlns="http://www.w3.org/2000/svg" viewBox="0 0 723.83 462.19"><defs><style>.cls-1{fill:#006837;}.cls-2{fill:#008870;}.cls-3{fill:#006854;}</style></defs><title>gravity logo</title><g id="Capa_2" data-name="Capa 2"><g id="Capa_3" data-name="Capa 3"><path class="cls-1" d="M78.32,427.52q-33.34,0-55.94-21.95Q0,383.19,0,349.41q0-34,22.59-56Q45,271.31,79.18,271.3q27.54,0,46.48,12.91v23.46a77.75,77.75,0,0,0-45-14.21q-24.75,0-40.45,15.71Q24.31,325.1,24.31,349.62q0,25,15.5,40.46,15.92,15.29,38.51,15.28,23,0,36.37-12.7V337.79h23.67v64.55q-9.48,11.19-25.5,18.18A85.48,85.48,0,0,1,78.32,427.52Z"/><path class="cls-1" d="M187.63,418.08H164.39V312.43h23.24v18.29a40.7,40.7,0,0,1,16.14-15.17,46.56,46.56,0,0,1,22.81-5.92,7.73,7.73,0,0,1,2.15.21v23.24a62.26,62.26,0,0,0-6.46-.43,38.8,38.8,0,0,0-21.3,6q-9.47,6-13.34,14.63Z"/><path class="cls-1" d="M343.63,400a13,13,0,0,0,6.24-1.5v17.64q-4.74,3.44-13.56,3.44-18.07,0-22.16-15.06-14.41,16.35-38.95,16.35-17,0-28.4-9.46-11.19-9.26-11.19-26t12.27-25.82q12-9.26,30.12-9.25,19.15,0,33.78,8.17v-5.81q0-23-31-23a62.17,62.17,0,0,0-33.36,9.47V318.67q15.71-9,38.52-9,22.38,0,35.61,10.65t13.24,29.8v39.38q0,4.95,2.47,7.74A8.09,8.09,0,0,0,343.63,400Zm-31.85-11.83V375.26a56.48,56.48,0,0,0-28.19-7.53q-11.61,0-18.18,4.3a13.62,13.62,0,0,0-6.56,12.05q0,8.18,6.13,12.48t16.68,4.3a41.7,41.7,0,0,0,16.78-3.55A38.82,38.82,0,0,0,311.78,388.17Z"/><path class="cls-1" d="M415.92,418.94H394.84L347.5,312.43h25.6L406,388.81l32.49-76.38h24.74Z"/><path class="cls-1" d="M544.81,389.24V332.87H522.22V312.43h22.59V281.66h23.24v30.77H601.4v20.44H568.05v49.7q0,8.83,4.09,12.91t12.48,4.09a34.37,34.37,0,0,0,15.92-3.87v20q-7.53,5.16-23.45,5.16-15.06,0-23.67-8.17T544.81,389.24Z"/><path class="cls-1" d="M633,462.19q-13.12,0-19.15-3.44V438.3a33.61,33.61,0,0,0,15.28,3.45,19.86,19.86,0,0,0,15-6.46q6.14-6.45,12.38-21.09L610.22,312.43H636l31.85,74.45,30.77-74.45h25.17L673.27,429.48Q659.07,462.18,633,462.19Z"/><rect class="cls-1" x="480.9" y="314.32" width="23.24" height="105.65"/><circle class="cls-2" cx="258.37" cy="144.93" r="42.63"/><circle class="cls-2" cx="465.47" cy="144.93" r="42.63"/><circle class="cls-2" cx="361.92" cy="42.63" r="42.63"/><circle class="cls-3" cx="320.5" cy="186.03" r="17.05"/><circle class="cls-3" cx="403.34" cy="186.03" r="17.05"/><circle class="cls-3" cx="361.92" cy="175.8" r="10.23"/><circle class="cls-3" cx="361.92" cy="226.95" r="17.05"/></g></g></svg>