<svg xmlns="http://www.w3.org/2000/svg" viewBox="0 0 874.45 558.36"><defs><style>.cls-1{fill:#f5f5f5;}</style></defs><title>gravity white</title><g id="Capa_2" data-name="Capa 2"><g id="Capa_1-2" data-name="Capa 1"><path class="cls-1" d="M94.62,516.47Q54.33,516.47,27,490q-27-27-27-67.85Q0,381,27.29,354.53q27-26.77,68.37-26.78,33.27,0,56.15,15.6v28.33q-25-17.15-54.33-17.15-29.9,0-48.87,19-19.24,19.25-19.24,48.87,0,30.17,18.72,48.87,19.23,18.47,46.53,18.46,27.81,0,43.93-15.34V408.08h28.6v78q-11.44,13.51-30.81,22A103.23,103.23,0,0,1,94.62,516.47Z"/><path class="cls-1" d="M226.67,505.07H198.6V377.43h28.07v22.1q6.5-11.17,19.5-18.33a56.35,56.35,0,0,1,27.55-7.15,9.26,9.26,0,0,1,2.6.26v28.08a72,72,0,0,0-7.8-.52,46.92,46.92,0,0,0-25.73,7.28q-11.44,7.28-16.12,17.67Z"/><path class="cls-1" d="M415.13,483.23a15.6,15.6,0,0,0,7.54-1.82v21.32q-5.73,4.15-16.38,4.16-21.84,0-26.78-18.2-17.42,19.76-47.05,19.76-20.54,0-34.31-11.44-13.51-11.17-13.52-31.45t14.82-31.2q14.55-11.17,36.39-11.18,23.15,0,40.82,9.88v-7q0-27.81-37.44-27.81a75,75,0,0,0-40.29,11.44V385q19-10.92,46.53-10.92,27,0,43,12.87t16,36v47.57q0,6,3,9.36A9.75,9.75,0,0,0,415.13,483.23Zm-38.47-14.3V453.34a68.23,68.23,0,0,0-34.06-9.1q-14,0-22,5.2A16.47,16.47,0,0,0,312.71,464q0,9.87,7.41,15.07t20.14,5.2A50.47,50.47,0,0,0,360.54,480,47.09,47.09,0,0,0,376.66,468.93Z"/><path class="cls-1" d="M502.47,506.11H477L419.8,377.43h30.94l39.77,92.29,39.25-92.29h29.89Z"/><path class="cls-1" d="M658.17,470.23v-68.1H630.88v-24.7h27.29V340.26h28.08v37.17h40.29v24.7H686.25v60.05q0,10.65,4.94,15.59t15.07,4.94A41.51,41.51,0,0,0,725.5,478v24.18q-9.11,6.24-28.33,6.24-18.21,0-28.6-9.88T658.17,470.23Z"/><path class="cls-1" d="M764.75,558.36q-15.86,0-23.14-4.16V529.5a40.75,40.75,0,0,0,18.46,4.16,24,24,0,0,0,18.07-7.8q7.4-7.8,14.94-25.47l-55.89-123h31.2l38.47,89.95L844,377.43h30.42L813.36,518.84Q796.2,558.35,764.75,558.36Z"/><rect class="cls-1" x="580.97" y="379.73" width="28.07" height="127.63"/><circle class="cls-1" cx="312.13" cy="175.08" r="51.49"/><circle class="cls-1" cx="562.32" cy="175.08" r="51.49"/><circle class="cls-1" cx="437.22" cy="51.49" r="51.49"/><circle class="cls-1" cx="387.18" cy="224.74" r="20.6"/><circle class="cls-1" cx="487.26" cy="224.74" r="20.6"/><circle class="cls-1" cx="437.22" cy="212.39" r="12.36"/><circle class="cls-1" cx="437.22" cy="274.18" r="20.6"/></g></g></svg>